<svg xmlns="http://www.w3.org/2000/svg" x="0px" y="0px" width="100" height="100" viewBox="0 0 172 172" style=" fill:#000000;"><g fill="none" fill-rule="nonzero" stroke="none" stroke-width="1" stroke-linecap="butt" stroke-linejoin="miter" stroke-miterlimit="10" stroke-dasharray="" stroke-dashoffset="0" font-family="none" font-weight="none" font-size="none" text-anchor="none" style="mix-blend-mode: normal"><path d="M0,172v-172h172v172z" fill="none"></path><path d="M86,157.38c-39.42209,0 -71.38,-31.95791 -71.38,-71.38v0c0,-39.42209 31.95791,-71.38 71.38,-71.38v0c39.42209,0 71.38,31.95791 71.38,71.38v0c0,39.42209 -31.95791,71.38 -71.38,71.38z" fill="#f1c40f"></path><g fill="#000000"><path d="M86,10.0835c-41.90004,0 -75.9165,34.01646 -75.9165,75.9165c0,41.90004 34.01646,75.9165 75.9165,75.9165c41.90004,0 75.9165,-34.01646 75.9165,-75.9165c0,-41.90004 -34.01646,-75.9165 -75.9165,-75.9165zM86,14.6845c39.41344,0 71.3155,31.90206 71.3155,71.3155c0,39.41344 -31.90206,71.3155 -71.3155,71.3155c-39.41344,0 -71.3155,-31.90206 -71.3155,-71.3155c0,-39.41344 31.90206,-71.3155 71.3155,-71.3155zM86,21.586c-1.26988,0 -2.3005,1.03062 -2.3005,2.3005c0,1.26988 1.03062,2.3005 2.3005,2.3005c1.26988,0 2.3005,-1.03062 2.3005,-2.3005c0,-1.26988 -1.03062,-2.3005 -2.3005,-2.3005zM73.43711,22.82162c-1.24687,0.24845 -2.0524,1.46251 -1.80625,2.70938c0.24615,1.24687 1.45801,2.0524 2.70489,1.80625c1.24687,-0.24845 2.0524,-1.45801 1.80625,-2.70488c-0.24845,-1.24687 -1.46032,-2.0592 -2.70489,-1.81075zM98.56738,22.82162c-1.24687,-0.24615 -2.45643,0.55938 -2.70489,1.80625c-0.24845,1.24687 0.55938,2.45643 1.80625,2.70488c1.24687,0.24845 2.45643,-0.55938 2.70488,-1.80625c0.24845,-1.24687 -0.55938,-2.45643 -1.80625,-2.70489zM62.24464,26.31281c-0.29878,-0.00227 -0.60083,0.05388 -0.89414,0.17523c-1.17325,0.48541 -1.73231,1.83037 -1.24461,3.00593c0.48771,1.17556 1.83037,1.73231 3.00593,1.24461c1.17556,-0.48771 1.73231,-1.83037 1.24461,-3.00593c-0.36578,-0.87994 -1.21546,-1.41305 -2.11179,-1.41984zM109.75087,26.31281c-0.89719,0.00679 -1.74324,0.5399 -2.10729,1.41984c-0.48541,1.17326 0.07135,2.51822 1.24461,3.00593c1.17325,0.48541 2.51822,-0.07135 3.00593,-1.24461c0.48541,-1.17325 -0.07135,-2.51822 -1.24461,-3.00593c-0.29389,-0.12135 -0.59957,-0.1775 -0.89863,-0.17523zM51.05666,32.09102c-0.29346,0.05597 -0.58073,0.16999 -0.84472,0.34597c-1.05593,0.70625 -1.33979,2.13422 -0.63353,3.19015c0.70625,1.05593 2.13422,1.34428 3.19015,0.63803c1.05593,-0.70625 1.33979,-2.13871 0.63353,-3.19464c-0.52969,-0.79195 -1.46506,-1.14741 -2.34543,-0.97951zM120.93884,32.09102c-0.88037,-0.16876 -1.81574,0.19033 -2.34543,0.984c-0.70625,1.05593 -0.42239,2.48389 0.63353,3.19014c1.05593,0.70625 2.48389,0.42239 3.19015,-0.63353c0.70625,-1.05593 0.42239,-2.48389 -0.63353,-3.19015c-0.26398,-0.17656 -0.55126,-0.29421 -0.84472,-0.35047zM42.07932,39.77882c-0.58893,0 -1.17793,0.22423 -1.62652,0.67398c-0.8995,0.8995 -0.8995,2.35585 0,3.25305c0.8995,0.8995 2.35585,0.8995 3.25305,0c0.8995,-0.8995 0.8995,-2.35585 0,-3.25305c-0.4486,-0.44975 -1.0376,-0.67398 -1.62652,-0.67398zM129.92068,39.77882c-0.58864,0 -1.17678,0.22538 -1.62652,0.67398c-0.8995,0.8995 -0.8995,2.35585 0,3.25305c0.8995,0.8995 2.35585,0.8995 3.25305,0c0.8995,-0.8995 0.8995,-2.35585 0,-3.25305c-0.4486,-0.4486 -1.03788,-0.67398 -1.62652,-0.67398zM137.21308,49.22795c-0.29375,0.05607 -0.58016,0.16941 -0.84472,0.34597c-1.05593,0.70625 -1.34428,2.13422 -0.63803,3.19014c0.70625,1.05593 2.13871,1.33979 3.19464,0.63354c1.05593,-0.70625 1.33979,-2.13422 0.63354,-3.19015c-0.52796,-0.79195 -1.4642,-1.14773 -2.34543,-0.97951zM34.78692,49.23244c-0.88037,-0.16822 -1.81574,0.18756 -2.34543,0.97951c-0.70625,1.05593 -0.42239,2.48389 0.63354,3.19015c1.05593,0.70625 2.48838,0.42239 3.19464,-0.63353c0.70625,-1.05593 0.4179,-2.48389 -0.63803,-3.19015c-0.26398,-0.17656 -0.55126,-0.2899 -0.84472,-0.34597zM65.22361,59.25219v6.71279h16.97967v46.78282h7.5575v-46.78282h17.01561v-6.71279zM143.40017,59.92617c-0.29907,-0.00227 -0.60025,0.05388 -0.89414,0.17523c-1.17325,0.4854 -1.73231,1.83486 -1.24461,3.01042c0.48541,1.17326 1.83037,1.73231 3.00593,1.24461c1.17325,-0.48541 1.73231,-1.83486 1.24461,-3.01042c-0.36405,-0.87994 -1.21459,-1.41305 -2.11179,-1.41984zM28.59983,59.93066c-0.89719,0.00593 -1.74324,0.53817 -2.10729,1.41984c-0.48541,1.17325 0.07135,2.51822 1.24461,3.00593c1.17325,0.48541 2.51822,-0.07135 3.00593,-1.24461c0.48541,-1.17325 -0.07135,-2.51822 -1.24461,-3.00593c-0.29389,-0.12193 -0.59957,-0.17721 -0.89863,-0.17523zM25.53549,71.62637c-1.24687,-0.24615 -2.46093,0.55938 -2.70938,1.80625c-0.24845,1.24687 0.56388,2.46093 1.81075,2.70938c1.24687,0.24845 2.45643,-0.56388 2.70488,-1.81075c0.24845,-1.24687 -0.55938,-2.45643 -1.80625,-2.70488zM146.47349,71.62637c-1.24687,0.24845 -2.0524,1.45801 -1.80625,2.70488c0.24845,1.24687 1.45801,2.0569 2.70488,1.81075c1.24687,-0.24845 2.05241,-1.46251 1.80625,-2.70938c-0.24845,-1.24687 -1.45802,-2.05471 -2.70489,-1.80625zM23.8865,83.6995c-1.26988,0 -2.3005,1.03062 -2.3005,2.3005c0,1.26988 1.03062,2.3005 2.3005,2.3005c1.26988,0 2.3005,-1.03062 2.3005,-2.3005c0,-1.26988 -1.03062,-2.3005 -2.3005,-2.3005zM148.1135,83.6995c-1.26988,0 -2.3005,1.03062 -2.3005,2.3005c0,1.26988 1.03062,2.3005 2.3005,2.3005c1.26988,0 2.3005,-1.03062 2.3005,-2.3005c0,-1.26988 -1.03062,-2.3005 -2.3005,-2.3005zM147.37213,95.858c-1.24687,-0.24845 -2.45643,0.56388 -2.70488,1.81075c-0.24845,1.24687 0.55938,2.45643 1.80625,2.70488c1.24687,0.24845 2.46093,-0.55938 2.70938,-1.80625c0.24845,-1.24687 -0.56388,-2.46093 -1.81075,-2.70938zM24.63237,95.86249c-1.24687,0.24845 -2.0569,1.45802 -1.81075,2.70489c0.24845,1.24687 1.46251,2.0524 2.70938,1.80625c1.24687,-0.24845 2.0524,-1.45801 1.80625,-2.70488c-0.24615,-1.24687 -1.45801,-2.05471 -2.70488,-1.80625zM143.36872,107.46384c-0.89633,0.00647 -1.74152,0.5399 -2.10729,1.41984c-0.48541,1.17325 0.07135,2.52271 1.24461,3.01042c1.17326,0.48541 2.51822,-0.07135 3.00593,-1.24461c0.48541,-1.17325 -0.07135,-2.52271 -1.24461,-3.01042c-0.29331,-0.12193 -0.59986,-0.17739 -0.89863,-0.17523zM28.63128,107.46834c-0.29878,-0.00216 -0.60083,0.05331 -0.89414,0.17523c-1.17325,0.48541 -1.73231,1.83037 -1.24461,3.00593c0.48541,1.17325 1.83037,1.73231 3.00593,1.24461c1.17325,-0.48541 1.73231,-1.83037 1.24461,-3.00593c-0.36578,-0.87994 -1.21546,-1.41337 -2.11179,-1.41984zM138.08026,118.24295c-0.88037,-0.16822 -1.81574,0.18756 -2.34543,0.97951c-0.70625,1.05593 -0.42239,2.48389 0.63353,3.19015c1.05593,0.70625 2.48389,0.42239 3.19015,-0.63354c0.70625,-1.05593 0.42239,-2.48389 -0.63354,-3.19014c-0.26398,-0.17656 -0.55126,-0.2899 -0.84471,-0.34597zM33.92423,118.24744c-0.29346,0.05607 -0.58073,0.16941 -0.84471,0.34597c-1.05593,0.70625 -1.33979,2.13422 -0.63354,3.19015c0.70625,1.05593 2.13422,1.33979 3.19015,0.63353c1.05593,-0.70625 1.33979,-2.13422 0.63353,-3.19015c-0.52969,-0.79195 -1.46506,-1.14773 -2.34543,-0.97951zM42.07932,127.62018c-0.58893,0 -1.17793,0.22423 -1.62652,0.67398c-0.8995,0.8995 -0.8995,2.35585 0,3.25305c0.8995,0.8995 2.35585,0.8995 3.25305,0c0.8995,-0.8995 0.8995,-2.35585 0,-3.25305c-0.4486,-0.44975 -1.0376,-0.67398 -1.62652,-0.67398zM129.92068,127.62018c-0.58893,0 -1.17793,0.22538 -1.62652,0.67398c-0.8995,0.8995 -0.8995,2.35585 0,3.25305c0.8995,0.8995 2.35585,0.8995 3.25305,0c0.8995,-0.8995 0.8995,-2.35585 0,-3.25305c-0.4486,-0.4486 -1.0376,-0.67398 -1.62652,-0.67398zM51.93283,135.37987c-0.88091,-0.16822 -1.81747,0.19205 -2.34543,0.984c-0.70625,1.05593 -0.42239,2.48389 0.63354,3.19015c1.05593,0.70625 2.48389,0.42239 3.19014,-0.63354c0.70625,-1.05593 0.42239,-2.48839 -0.63353,-3.19464c-0.26398,-0.17656 -0.55108,-0.2899 -0.84472,-0.34597zM120.07616,135.37987c-0.29346,0.05607 -0.58073,0.16941 -0.84472,0.34597c-1.05593,0.70625 -1.33979,2.13871 -0.63353,3.19464c0.70625,1.05593 2.13422,1.33979 3.19015,0.63354c1.05593,-0.70625 1.33979,-2.13422 0.63353,-3.19015c-0.52969,-0.79195 -1.46506,-1.15223 -2.34543,-0.984zM62.21768,141.0817c-0.89633,0.00679 -1.74601,0.5399 -2.11179,1.41984c-0.48541,1.17325 0.07135,2.51822 1.24461,3.00593c1.17325,0.48771 2.52271,-0.07135 3.01042,-1.24461c0.48541,-1.17325 -0.07135,-2.51822 -1.24461,-3.00593c-0.29331,-0.12135 -0.59986,-0.1775 -0.89863,-0.17523zM109.78681,141.0817c-0.29907,-0.00226 -0.60474,0.05388 -0.89863,0.17523c-1.17325,0.48541 -1.73231,1.83037 -1.24461,3.00593c0.48541,1.17325 1.83486,1.73231 3.01042,1.24461c1.17326,-0.48541 1.73231,-1.83037 1.24461,-3.00593c-0.36405,-0.87994 -1.21459,-1.41305 -2.11179,-1.41984zM74.33575,144.65826c-1.24687,-0.24615 -2.45643,0.56387 -2.70489,1.81074c-0.24845,1.24687 0.55938,2.45643 1.80625,2.70489c1.24687,0.24845 2.45643,-0.55938 2.70489,-1.80625c0.24845,-1.24687 -0.55938,-2.46092 -1.80625,-2.70938zM97.66875,144.66724c-1.24687,0.24845 -2.05241,1.45801 -1.80625,2.70488c0.24615,1.24687 1.45802,2.05241 2.70489,1.80625c1.24687,-0.24845 2.0524,-1.45802 1.80625,-2.70489c-0.24615,-1.24687 -1.45801,-2.05471 -2.70488,-1.80625zM86,145.813c-1.26988,0 -2.3005,1.03062 -2.3005,2.3005c0,1.26988 1.03062,2.3005 2.3005,2.3005c1.26988,0 2.3005,-1.03062 2.3005,-2.3005c0,-1.26988 -1.03062,-2.3005 -2.3005,-2.3005z"></path></g></g></svg>